<?xml version="1.0" encoding="utf-8"?>
<!-- Generator: Adobe Illustrator 25.0.1, SVG Export Plug-In . SVG Version: 6.00 Build 0)  -->
<svg version="1.1" id="Capa_1" xmlns="http://www.w3.org/2000/svg" xmlns:xlink="http://www.w3.org/1999/xlink" x="0px" y="0px"
	 viewBox="0 0 169 154" style="enable-background:new 0 0 169 154;" xml:space="preserve">
<style type="text/css">
	.st0{fill:#EFEFEF;}
	.st1{fill:#4B2981;}
	.st2{fill:#70519D;}
	.st3{fill:#FFFFFF;}
	.st4{fill:#EFF3F4;}
	.st5{fill:#2F2F31;}
	.st6{fill:#DAD9DE;}
	.st7{fill:#B9B8BE;}
	.st8{fill:#99989D;}
	.st9{fill:#D3D2D7;}
	.st10{fill:#9B9A9F;}
	.st11{fill:#9F9EA4;}
	.st12{fill:#D6D4D9;}
	.st13{fill:#D7D5DA;}
	.st14{fill:#BCBAC0;}
	.st15{fill:#9E9DA3;}
	.st16{fill:#9C9BA0;}
	.st17{fill:#A3A2A7;}
	.st18{fill:#AAA9AE;}
	.st19{fill:#AFAEB4;}
	.st20{fill:#C4C3C9;}
	.st21{fill:#CBCACF;}
	.st22{fill:#D1CFD5;}
	.st23{fill:#C5C3C9;}
	.st24{fill:#B5B4BA;}
	.st25{fill:#B3B2B8;}
	.st26{fill:#CECDD3;}
	.st27{fill:#BCBBC1;}
	.st28{fill:#AFADB3;}
	.st29{fill:#AAA8AE;}
	.st30{fill:#CDCCD1;}
	.st31{fill:#BFBDC3;}
	.st32{fill:#B3B1B7;}
	.st33{fill:#A6A5AA;}
	.st34{fill:#DEDCE2;}
	.st35{fill:#A1A0A5;}
	.st36{fill:#2E2E31;}
	.st37{fill:#2E2E30;}
	.st38{fill:#2E2D30;}
	.st39{fill:#2E2D2F;}
	.st40{fill:#2C2C2E;}
	.st41{fill:#A19FA5;}
	.st42{fill:#C4C3C8;}
	.st43{fill:#28282A;}
	.st44{fill:#3C3C3E;}
	.st45{fill:#929196;}
	.st46{fill:#29292B;}
	.st47{fill:#303032;}
	.st48{fill:#C1C0C6;}
	.st49{fill:#C8C7CD;}
	.st50{fill:#C7C6CA;}
	.st51{fill:#D5D3D8;}
	.st52{fill:#38383A;}
	.st53{fill:#353537;}
	.st54{fill:#A5A4A9;}
	.st55{fill:#C8C7CC;}
	.st56{fill:#8E8D92;}
	.st57{fill:#C4C3C7;}
	.st58{fill:#2F2F32;}
	.st59{fill:#BDBCC1;}
	.st60{fill:#262627;}
	.st61{fill:#B6B5BB;}
	.st62{fill:#BBBAC0;}
	.st63{fill:#3B3B3D;}
	.st64{fill:#8F8E92;}
	.st65{fill:#5A5A5B;}
	.st66{fill:#CFCDD3;}
	.st67{fill:#A8A6AB;}
	.st68{fill:#A2A1A6;}
	.st69{fill:#B4B3B9;}
	.st70{fill:#525154;}
	.st71{fill:#95949A;}
	.st72{fill:#A4A3A8;}
	.st73{fill:#A8A6AC;}
	.st74{fill:#CDCCD2;}
	.st75{fill:#C6C5CA;}
	.st76{fill:#C2C1C6;}
	.st77{fill:#B2B0B6;}
	.st78{fill:#A8A7AC;}
	.st79{fill:#9A999E;}
	.st80{fill:#A7A6AB;}
	.st81{fill:#AEADB2;}
	.st82{fill:#ABA9AF;}
	.st83{fill:#E8443A;}
	.st84{fill:#FFFCFC;}
</style>
<g>
	<path class="st0" d="M162,46.2c16,39.7-1.2,84-38.6,99C86.2,160,19.7,149.2,3.7,109.5c-16-39.7,41.8-52.1,68.3-91.9
		C94.7-16.5,146.1,6.4,162,46.2z"/>
	<path class="st1" d="M99.4,147.2l-45.7,5.7c-6.6,0-21.1,1.9-22.3-8.4L29.8,25.9c0-7.5,5.3-13.6,11.9-13.6h59.8
		c6.6,0-4.1,6-4.1,13.6l-2,106.4C95.3,139.8,106,147.2,99.4,147.2z"/>
	<path class="st2" d="M98.3,152.3L48,154c-7.6,0-13.6-6-13.6-13.6L33.2,25.9c0-7.5,6.1-13.6,13.6-13.6h53.8c7.6,0,13.6,6,13.6,13.6
		l-2.2,112.7C112,146.1,105.9,152.3,98.3,152.3z"/>
	<path class="st3" d="M78.6,20.1c-3.2,0.4-6.6,0.4-9.9,0c-0.6-0.1-1.1,0.6-1.1,1.1c0,0.6,0.5,1.1,1.1,1.1c3.2,0.4,6.6,0.4,9.9,0
		c0.6-0.1,1.1-0.5,1.1-1.1S79.2,20,78.6,20.1z"/>
	<path class="st3" d="M79.7,139.7c-0.7-0.7-1.6-1.1-2.5-1.5c-0.1-0.4-0.4-0.6-0.7-0.7c-1.9-0.6-4.1,0.1-5.3,1.7
		c-1.4,1.6-1.4,3.9-0.2,5.7c1.2,1.9,3.2,2.7,5.3,2.3c2-0.4,3.8-2,4.3-3.9C81,141.9,80.6,140.6,79.7,139.7z M74.8,145
		C74.9,145,74.9,145,74.8,145L74.8,145z M78.5,142.4c-0.1,1.1-1.2,2.1-2.2,2.5c-0.1,0-0.4,0.1-0.5,0.1c0,0,0,0-0.1,0h-0.1
		c-0.2,0-0.4,0-0.6,0c-0.1,0-0.2,0-0.4-0.1c-0.1,0-0.1,0-0.2-0.1s-0.2-0.1-0.4-0.2c-0.2-0.1-0.5-0.4-0.7-0.6c-0.1-0.1,0-0.1,0,0
		c0-0.1-0.1-0.1-0.1-0.2c-0.1-0.1-0.1-0.2-0.2-0.5c-0.1-0.2,0-0.1,0,0c0-0.1-0.1-0.1-0.1-0.2c0-0.1,0-0.1-0.1-0.2c0,0,0-0.1,0-0.2
		c0-0.1,0-0.2,0-0.4c0-0.1,0-0.2,0-0.2c0-0.1,0.1-0.2,0.1-0.4c0-0.1,0.1-0.2,0.1-0.2c0.2-0.5,0.7-1,1.4-1.2c0.5-0.2,0.9-0.2,1.4-0.2
		c0.1,0.4,0.4,0.6,0.7,0.7c0.1,0,0.4,0.1,0.5,0.2l0.2,0.1c0.4,0.1,0.6,0.4,1,0.6l0.2,0.2l0.1,0.1c0,0,0,0.1,0.1,0.1
		c0,0,0,0.1,0.1,0.1v0.1C78.5,141.9,78.5,142.2,78.5,142.4z"/>
	<path class="st3" d="M102.3,134.1H46c-2.4,0-4.2-1.9-4.2-4.2V35.7c0-2.3,1.9-4.2,4.2-4.2h56.2c2.4,0,4.2,1.9,4.2,4.2v94.3
		C106.5,132.2,104.5,134.1,102.3,134.1z"/>
	<path class="st4" d="M89.1,105.3H55.6c-3.5,0-6.2-2.7-6.2-6.2V65.7c0-3.5,2.7-6.2,6.2-6.2h33.6c3.5,0,6.2,2.7,6.2,6.2v33.4
		C95.5,102.5,92.6,105.3,89.1,105.3z"/>
	<path class="st5" d="M83.4,65.4c1.5,1.1,2.9,2.3,4.1,3.6c0.5,0.6,0.9,1.2,1.4,1.7c0.1,0.2,0.4,0.5,0.5,0.7c0.4,0.7,0.7,1.4,1.1,2.1
		c0.2,0.5,0.4,1,0.6,1.5c0.1,0.4,0.4,0.9,0.5,1.2c0.1,0.4,0.1,0.6,0.2,1c0.1,0.7,0.1,1.6,0.5,2.3c0,0.4,0,0.6,0,1c0,1.2,0,2.6,0,3.8
		c-0.1,0.6-0.2,1.4-0.4,2c0.1,0.4,0.1,0.7-0.2,1c-0.2,0.2-0.2,0.5-0.2,0.9c0,0.2,0,0.5,0,0.7c-0.2,0.4-0.4,0.9-0.5,1.2
		c-0.2,0.2-0.5,0.6-0.5,1.1c-0.4,0.7-0.9,1.4-1.2,2.1c-0.4,0.5-0.7,1-1.1,1.5c-0.5,0.5-1,1-1.5,1.6c-0.4,0.4-0.7,0.6-1,1
		c-0.6,0.4-1.2,0.9-1.7,1.2c-0.4,0.6-1,1.1-1.7,1.1c-1.1,0.5-2.2,1-3.3,1.5c-4,1.1-8.1,1.1-12,0c-1-0.4-2.1-0.9-3.1-1.2
		c-1.1,0.1-1.7-0.6-2.4-1.4c-0.2-0.2-0.5-0.5-0.7-0.5c-1-0.2-1.6-1-2-1.9c-0.4-0.5-0.7-1-1.2-1.2c-0.5-0.7-1-1.4-1.5-2.1
		c0-0.1-0.1-0.4-0.2-0.4c-0.2-0.5-0.4-1-0.7-1.4c-0.1-0.4-0.2-0.7-0.5-1c-0.1-0.1-0.1-0.4-0.2-0.5c-0.5-0.4-0.1-1.1-0.6-1.5
		c0-0.2,0-0.6-0.2-0.7c0-0.4,0-0.7-0.2-1.1c0-0.5,0-1-0.2-1.5c0-1.5,0-3-0.1-4.6c0-0.4,0-0.6,0.1-1c0.2-0.5,0.2-1,0.2-1.5
		c0.2-0.4,0.2-0.6,0.2-1c0.1-0.7,0.7-1.2,0.7-2.1c0.2-0.5,0.5-1,0.7-1.5c0.2-0.4,0.5-0.9,0.6-1.2c0.2-0.4,0.5-0.7,0.6-1.1
		c0.5-0.6,1-1.4,1.6-2c0.2-0.2,0.6-0.4,0.7-0.7c0.5-0.7,1.5-1,2.1-1.7c0.7-0.5,1.5-1,2.2-1.5c1.6-0.9,3.3-1.5,5.1-2.1
		c3.3-0.7,6.8-0.7,10.2,0C79.7,63.6,81.6,64.4,83.4,65.4z"/>
	<path class="st6" d="M81.6,67.3c-0.2,0.5-0.7,0.9-0.2,1.5c0.2,0.2,0.1,0.5-0.2,0.6c-0.6,0.1-1.2,0.5-2,0.4c-1.4-0.2-2.7-1-4.1-1.2
		c-2-0.4-3.8-0.1-5.7,0.1c-0.5,0-0.9,0.1-1.2,0.5c-0.1,0.1-0.4,0.2-0.5,0.2c-0.9-0.1-1.7-0.4-2.6-0.2c-0.5,0.1-1-0.1-0.9-0.7
		c-0.2-0.5-0.6-1-0.7-1.7c0.7,0.1,0.7,0.7,1.1,1c0.2,0.2,0.4,0.5,0.7,0.2c0.4-0.2,0.5-0.4,0.4-0.9c-0.1-0.5-0.2-1-0.5-1.7
		c0.7,0.4,0.9,1,1.1,1.4c0.2,0.2,0.4,0.6,0.7,0.4c0.4-0.1,0.4-0.5,0.4-0.9c-0.1-0.5-0.4-1-0.1-1.6c0.5,0.1,0.4,0.6,0.6,0.9
		c0.4,0.4,0.1,1.2,1,1c0.7-0.2,0.2-1,0.4-1.4c0-0.2,0-0.6,0-1c0.6,0.2,0.6,0.9,0.7,1.2c0.2,0.9,0.6,0.9,1.2,0.6
		c0.9,0.6,1.7,0.2,2.6,0.1c0.4,0,0.9,0.4,1.2-0.1c0-0.6,0.2-1.1,0.5-1.9c0.5,0.6,0.2,1.1,0.2,1.6c0,0.4-0.2,0.6,0.4,0.7
		c0.5,0.1,0.6-0.1,0.9-0.5c0.2-0.5,0.4-1,0.9-1.5c0.2,0.5,0,1,0,1.5c-0.1,0.4-0.2,0.9,0.2,1.1c0.6,0.2,0.6-0.4,0.9-0.6
		c0.2-0.2,0.2-0.7,0.7-0.9c0.2,0.5-0.1,1-0.2,1.4c0,0.2-0.4,0.7,0.1,0.9c0.4,0.1,0.7,0.1,1-0.4c0.1-0.2,0.2-0.5,0.6-0.6
		C81.5,66.9,81.6,66.9,81.6,67.3z"/>
	<path class="st7" d="M88.9,82.8c-0.4,0.1-0.1,0.5-0.2,0.7c-1,0.6-2.1,0.2-3.1,0.4c-0.2,0-0.5,0-0.6-0.1c-0.5-0.1-1-0.1-1.5-0.1
		c-0.7,0-1.5,0-2.2,0c-2.4,0-4.6-0.1-6.9,0.1c-0.7,0-1.1-0.5-1.1-1.2c0-0.2,0-0.4,0.1-0.6c0.2-0.4,0.4-0.7,0.9-0.9
		c1.5,0,2.9,0,4.3,0c0.5,0,1.1,0,1.6,0.4c0,0.2,0,0.4-0.2,0.4c-1.5,0.1-3,0-4,0c2.9,0.2,6.2-0.5,9.4-0.2c1.1,0,2.2-0.1,3.3,0.1
		c0.7,0.4,1.6,0,2.4,0.6c-0.5,0.1-0.7,0.2-1.1,0.4C89.6,83.1,89.3,82.9,88.9,82.8z"/>
	<path class="st8" d="M78.2,97.2c-1.2,0.6,0,1.6-0.4,2.5c-0.5,0-0.4-0.5-0.6-0.7c-0.4-0.1-0.4-0.7-0.9-0.5c-0.4,0.1-0.2,0.6-0.2,0.9
		s0,0.4-0.1,0.6c-0.7,0.4-0.5-0.4-0.7-0.6c-0.4-0.4,0.1-1.2-0.7-1.1c-0.6,0.2-0.2,0.9-0.5,1.2c0,0.1,0,0.1-0.1,0.2
		c-0.1,0.2-0.2,0.4-0.4,0.2c-0.5-0.4,0.1-1.5-0.9-1.5c-1.2,0-0.5,1.1-0.9,1.6c-0.1,0.1-0.1,0.2-0.2,0.6c-0.1-0.7-0.1-1.2-0.2-1.7
		c-0.1-0.2-0.1-0.7-0.6-0.7s-0.6,0.2-0.7,0.6c-0.2,0.4-0.2,0.9-0.6,1.2c0-0.5,0-1.1-0.1-1.6c-0.2-0.4-0.6-0.2-1-0.2
		c-0.4,0.4-0.4,1.1-1,1.5c0-0.7,0-1.4,0-2c0.2-1.1,1.2-1,1.9-1.1c2.1-0.1,4.3-0.1,6.4,0c0.5,0,1,0,1.4,0
		C77.5,96.7,78.1,96.5,78.2,97.2z"/>
	<path class="st9" d="M59.8,72.3c-0.2-0.5-1-0.7-1.1-1.5c0.7-0.2,1.2,1.4,2,0.4c0.7-0.9-0.7-1.2-0.6-2.1c0.9,0,1.1,1.1,2,1
		c1.7,0.1,3.5-0.1,5.2,0.2c0.2,0.6,0.4,1.1,0.4,1.7c-0.2,0.7-1,0.7-1.6,0.7c-0.2,0-0.4-0.1-0.6-0.1c-0.7-0.7-1.6-0.7-2.5-0.2
		c-0.2,0.1-0.6,0.4-1,0.4C61.3,72.6,60.4,72.8,59.8,72.3z"/>
	<path class="st10" d="M78.2,97.2c-0.7-0.7-1.6-0.1-2.5-0.1c-2.6-0.2-5.1-0.4-7.7,0.1c-0.4,0.1-0.6,0.2-0.9,0.5
		c-0.2-0.4-0.5-0.2-0.9-0.2c-0.2,0-0.5,0.2-0.9,0c0-0.1,0-0.4,0.1-0.5c0.2-0.7,0.9-0.7,1.6-0.9c0.7,0,1.5,0.1,2.2-0.1
		c0.6,0,1.4,0.1,2,0.1c0.7,0.2,1.5,0.2,2.4,0c1.6-0.1,3.1-1,4.8-1.2c0.7,0.4,1.6,0.2,2.4,0.5c0.4,0.2,0.4,0.6,0.2,1
		c0,0.6,0.6,1,0.4,1.6c-0.6-0.2-0.7-0.9-1.2-1.2c-0.4,0-0.7-0.1-1.1,0.2c0,0.1,0,0.2,0.1,0.4c0.1,0.2,0.2,0.6-0.4,0.6
		C78.9,97.9,78.7,97.4,78.2,97.2z"/>
	<path class="st11" d="M59.8,95.6c0.1-0.6,0.5-1,0.9-1.4c0.2-0.4,0.5-0.7,0.1-1.1c0.6-0.6,1.6-0.2,2.2-0.6c0.6-0.1,1.1,0,1.7,0.1
		c0.6,1,1.7,0.5,2.6,0.9c0.2,0.4,0.4,0.6,0.4,1.1c-0.7,1-1.9,1.1-3.1,1c-0.4,0-0.7-0.2-1.2-0.2c-0.1,0-0.1,0-0.2,0
		c-0.4,0-0.6-0.5-1-0.6c-0.5-0.2-0.9,0.1-1.2,0.4C60.6,95.5,60.3,96,59.8,95.6z"/>
	<path class="st12" d="M79.1,69.5c0.7-0.2,1.6-0.1,2.1-0.7c1.1,0.6,1.4-1,2.2-1.1c0.1,0.6-0.4,1-0.6,1.4c-0.2,0.4-0.1,0.6,0.1,0.9
		c0.4,0.5,0.6-0.1,0.7-0.2c0.4-0.2,0.5-0.9,1.2-0.5c-0.1,0.7-1.4,1-1,2c-0.7,0.6-1.6,0.2-2.5,0.1C80.7,70.8,79.6,70.5,79.1,69.5z"/>
	<path class="st13" d="M67.2,70.2c-0.6,0.4-1,0.4-1.7,0.1c-0.9-0.2-1.9,0.4-2.9-0.1c-0.1-0.1-0.2-0.1-0.5-0.2c0.7-0.5,0-1,0-1.5
		c-0.1-0.2,0-0.4,0.4-0.4c0.5,0.4,1,1.2,1.7,0.2c0.1,0.4,0.5,0.7,0.9,0.5c1-0.5,1.9,0.1,2.7,0.4C67.8,69.7,67.6,70,67.2,70.2z"/>
	<path class="st14" d="M88.7,81.7c-1.1,0.5-2.2,0.1-3.3,0.2c-0.2-0.2-0.4-0.5-0.4-0.7c0.5-0.5,0.9-1.2,1.4-1.9
		c0.7-0.2,1.4,0.2,2.1,0.4c0.6,0.7,1.6,0,2.4,0.5C90.4,81,88.4,80,88.7,81.7z"/>
	<path class="st15" d="M81.3,95.6c-0.9-0.2-1.9,0.5-2.6-0.5c0.6-1,1.7-1.5,2.9-1.9c0.7,0.6,1.6,0.5,2.5,0.4c0.4,0.5,0.7,1,1,1.5
		c0.1,0.2,0.1,0.5-0.2,0.5c-0.5,0-0.7-0.4-1.1-0.5c-0.4-0.2-0.7-0.4-1,0.1c0.1,0.6,0.7,1.1,0.6,1.9C82.3,97,82.1,95.9,81.3,95.6z"/>
	<path class="st16" d="M63.4,95.4c1-0.5,2.1,0.4,3.1-0.2c0.2-0.2,0.7-0.2,1-0.5c0.9,0.2,1.5,0.7,2.1,1.5c-0.2,0.4-0.7,0.4-1.1,0.2
		c-0.9,0-1.9-0.2-2.7,0.5c-0.5-0.5-0.9-0.6-1.2,0c-0.2,0.4-0.6,0.7-1,1.2C63.1,97,64.6,96.3,63.4,95.4z"/>
	<path class="st17" d="M63.1,92.7c-0.6,0.9-1.6,0.2-2.4,0.5c-0.1-0.1-0.2-0.1-0.4-0.2c-0.4,0.1-0.6-0.1-0.7-0.4
		c-0.2-0.5-0.5-0.6-1-0.4c-0.4,0.1-0.7,0.4-1.1,0.2c-0.6-0.1-0.2-0.4-0.1-0.5c0.5-0.4,0.9-0.9,1.4-1.2c0.5-0.5,1.2-0.4,1.9-0.2
		C61.6,90.8,62.4,91.8,63.1,92.7z"/>
	<path class="st18" d="M60.8,90.6c-0.6,0-1.4,0-2,0c-0.5-1.1-1.4-0.4-2-0.2c-0.1-0.1-0.1-0.2,0-0.5c0.2-0.2,0.5-0.4,0.7-0.6
		c0.2-0.1,0.4-0.2,0.1-0.6c-0.1-0.2-0.2-0.5-0.6-0.5c-0.5,0.1-1,0.4-1.7,0.1c0.5-0.6,1.1-0.7,1.7-1c0.7,1,1.6,0,2.5,0.2
		C60.1,88.5,60.6,89.5,60.8,90.6z"/>
	<path class="st19" d="M59.3,87.9c-0.7,0.1-1.4,0.6-2.1,0.2c-0.4-0.1-0.1-0.4-0.2-0.6c0-0.1,0-0.1,0-0.2c-0.4-0.6-1.1-0.4-1.5-0.7
		c-0.2,0-0.5-0.1-0.9-0.1c0.6-0.6,1.4-0.7,2.1-1c0.7-0.2,1.4-0.2,2.1,0C59.3,86.1,59.3,87,59.3,87.9z"/>
	<path class="st20" d="M88.4,79.6c-0.7,0.7-1.4-0.5-2-0.2c-0.5-0.9-1-1.7-0.5-2.7c0.9-0.4,1.7-0.2,2.5,0.1c-0.2,0.2-0.6,0.5-0.4,0.9
		c0.2,0.5,0.7,0.2,1.1,0.4c0.4,0,0.7-0.4,0.9,0.2C89.4,78.7,88.3,78.4,88.4,79.6z"/>
	<path class="st21" d="M57.3,74.3c0.4,0.4,0.7,0.2,1.1,0.2c0.6-0.4,1.4-0.7,2,0.1c-0.1,1-0.5,1.7-1.2,2.3c-0.7,0.4-1.5,0.1-2.2-0.1
		c-0.4-0.2-0.9-0.4-1.2-0.6c0-0.5,0.2-0.4,0.5-0.2c0.5,0,1.1,0.5,1.4-0.1c0.4-0.9-0.6-0.9-1-1.4C56.7,74,56.9,74.2,57.3,74.3z"/>
	<path class="st22" d="M81.5,71c0.9,0.1,1.7,0.4,2.6,0.2c0.6,0.6,1.1-0.2,1.6-0.2c0.2-0.1,0.4,0,0.4,0.2c-1.2,1.2-1.2,1.2,0,1.9
		c0.2,0.4,0.2,0.5-0.2,0.6c-0.6,0.1-1.1,0-1.7,0.1C82.8,73.2,82,72.3,81.5,71z"/>
	<path class="st23" d="M56.9,76.9c0.7-0.4,1.4,0.1,2.1-0.1c0.4,1-0.1,1.7-0.5,2.6c-0.7,0.4-1.4,0.6-2.1,0c0-0.9-1-0.5-1.4-1
		c0.4-0.7,0.9-0.4,1.4-0.2C57.2,77.9,57.2,77.4,56.9,76.9z"/>
	<path class="st24" d="M58.5,85.4c-0.6,0.2-1.2,0.1-1.9,0c-0.1-1.9-1.7-0.5-2.4-1.2c0.5-0.6,1.5-0.2,2.1-0.9c0.4-1,1-1,1.9-0.7
		C58.7,83.5,58.8,84.5,58.5,85.4z"/>
	<path class="st25" d="M85.3,83.4c1.1,0,2.2,0,3.2,0c0.6,0.6,1.6,0.4,2.4,1c-0.7,0.5-1.7-0.1-2.5,0.4c0,0.1-0.1,0.4-0.1,0.5
		c-0.6,0.5-1.2,0.4-1.9,0.2C85.9,84.9,85.6,84.2,85.3,83.4z"/>
	<path class="st21" d="M88.4,76.9c-0.9,0-1.7,0-2.6,0c-0.9-0.5-1.1-1.2-1.1-2.1c0.6-0.9,1.2-0.4,2-0.2c0.5,0.1,0.9-0.4,1.5-0.2
		c0.2-0.1,0.4,0,0.4,0.2c-0.2,0.1-0.5,0.2-0.7,0.4c-0.2,0.2-0.6,0.4-0.5,0.7s0.4,0.7,0.9,0.6c0.2-0.1,0.5-0.1,0.6,0
		C88.8,76.5,88.5,76.8,88.4,76.9z"/>
	<path class="st26" d="M60.3,74.5c-0.6-0.2-1.2,0-1.9,0c0.7-1-0.4-1.1-0.6-1.7c-0.1-0.4,0.1-0.5,0.4-0.2c0.6,0.6,1.2,0.5,1.6-0.2
		c0.7,0,1.5-0.1,2.2,0.2C61.6,73.4,61.1,74.2,60.3,74.5z"/>
	<path class="st27" d="M58.2,82.7c-0.5,0.4-1.4,0-1.7,0.7c0-0.4-0.1-0.7-0.6-0.7c-0.4,0-0.9,0.2-1.1-0.2c-0.1-0.2,0.1-0.4,0.2-0.5
		c0.6-0.2,1.9,0.1,1.4-1.2c0.7-0.4,1.5-0.4,2.1,0.4C58.7,81.6,58.7,82.2,58.2,82.7z"/>
	<path class="st28" d="M88.9,88c0.1,0,0.1,0.1,0.2,0.1c0,0.6-0.5,0.2-0.7,0.4c-0.4,0-0.6-0.1-1-0.1c-0.5,0.4-1.1,0.4-1.7,0.1
		c-0.6-0.9,0-1.6,0.5-2.2c0.7-0.1,1.4,0.1,2,0.4c-0.1,0.2-0.1,0.5-0.2,0.7C88.3,87.5,88.7,87.6,88.9,88z"/>
	<path class="st29" d="M85.6,88.2c0.6,0,1.2,0,1.9,0c-0.5,0.9,0.1,1.2,0.7,1.6c0.1,0.5-0.2,0.4-0.5,0.4c-0.4,0-0.6-0.1-1-0.1
		c-0.6,0.4-1.2,0.5-1.9-0.1C84.6,89.1,84.7,88.6,85.6,88.2z"/>
	<path class="st30" d="M86.7,74.5c-0.6,0.4-1.2-0.4-1.9,0.2c-0.6-0.1-1-0.6-0.7-1.2c0.6-0.7,1.4,0,2.1-0.4c0,0,0.1,0,0.1-0.1
		c0-0.1-0.1-0.1-0.1-0.2c0.6-0.4,1.1-0.6,1.9-1c-0.1,0.9-0.7,1.1-1.1,1.4C86.3,73.7,86.3,74,86.7,74.5z"/>
	<path class="st31" d="M58.3,81c-0.6-0.1-1.2-0.1-1.9-0.2c-0.7,0-1.5-0.2-2.1-0.9c0.5,0,1,0,1.6,0c0.4,0,0.6,0,0.7-0.5
		c0.6,0.2,1.4-0.1,2,0C58.7,80,58.7,80.5,58.3,81z"/>
	<path class="st32" d="M88.2,86.5c-0.6,0.2-1.2,0-1.9-0.2c-0.2-0.4-0.2-0.7,0.1-1c0.6,0,1.4,0,2,0c0.1,0.6,0.6,0.7,1.1,0.7
		c0.2,0,0.7,0.1,0.6,0.5c-0.1,0.4-0.6,0.2-0.9,0.1C88.9,86.5,88.5,86.5,88.2,86.5z"/>
	<path class="st17" d="M85.6,91.6c-0.5,0.5-0.5,0.9,0,1.2c-0.4,0.5-1,0-1.4,0.2c-0.1,0-0.1,0.1-0.2,0.1c-0.6,0-1.4,0.2-1.7-0.6
		c0.4-0.7,0.7-1.5,1.6-1.9C84.6,91.1,85.2,91.2,85.6,91.6z"/>
	<path class="st33" d="M85.6,91.6c-0.6,0-1.4,0-1.6-0.9c-0.1-0.5,0.1-0.9,0.7-1c0.6,0.4,1.2,0.2,1.9,0.2c-0.2,0.4-0.4,0.6,0,1
		c0.2,0.4,0.1,0.6-0.2,0.7C86,91.7,85.8,91.7,85.6,91.6z"/>
	<path class="st34" d="M73.8,66.4c-0.9,0.2-1.9,0.7-2.6-0.4c0-0.6-0.1-1.1,0.2-1.9c0.4,0.4,0.4,0.7,0.4,1.2c-0.1,0.4,0,0.6,0.5,0.6
		c0.4,0,0.7,0.1,0.7-0.5c0-0.5,0.2-1,0.4-1.6c0.6,0.5,0.4,1.1,0.4,1.6C74,65.9,74,66.1,73.8,66.4z"/>
	<path class="st35" d="M82.5,92.6c0.4,0.6,1.1,0.1,1.6,0.6c0,0.1,0,0.4-0.1,0.5c-1,0.7-1.9,0.7-2.5-0.2C81.6,92.7,82,92.6,82.5,92.6
		z"/>
	<path class="st36" d="M57.4,92.3c0.4-0.2,0.9-0.5,1.2-0.6c0.6-0.2,1,0,1.1,0.6c-0.1,0.1-0.2,0.2-0.5,0.2c-0.5,0.1-1-0.1-1.4,0.5
		c-0.2,0.4-0.6,0.1-0.7,0C56.8,92.7,57.4,92.7,57.4,92.3z"/>
	<path class="st37" d="M81.3,95.6c0.4-0.2,0.6-0.1,0.9,0.2c0.4,0.4,0.7,0.7,1.1,1c0,0.2,0.5,0.2,0.2,0.5c-0.1,0.2-0.4,0.1-0.6,0
		c-0.6-0.2-0.9-1.2-1.7-1C81,96.1,81.1,95.9,81.3,95.6z"/>
	<path class="st38" d="M82.7,95.1c0-0.6,0.4-0.9,0.9-0.6c0.5,0.2,0.9,0.7,1.2,1.1c0,0.2,0.5,0.2,0.2,0.6c-0.1,0.2-0.4,0-0.5-0.1
		C83.9,95.6,83.6,95,82.7,95.1z"/>
	<path class="st39" d="M59.8,95.6c0.6,0,1-0.5,1.4-0.9c0.4-0.4,0.7-0.4,1.2-0.1c0.1,0.2,0.1,0.4-0.1,0.5c-0.7-0.1-1.1,0.4-1.5,0.7
		C60.3,96.1,59.9,96.5,59.8,95.6z"/>
	<path class="st40" d="M55.4,86.5c0.5,0.1,1.6-0.7,1.5,0.7c-0.5,0-0.9-0.1-1.4,0c-0.2,0.1-0.9,0.5-1,0C54.3,86.5,55.3,87,55.4,86.5z
		"/>
	<path class="st16" d="M62.2,95.1c0-0.1,0-0.4,0.1-0.5c0.4,0.1,0.6,0.5,0.7,0.9c-0.5,0.5-0.9,1.1-1.7,1.6
		C61.5,96.1,62,95.8,62.2,95.1z"/>
	<path class="st41" d="M59.3,92.6c0.1-0.1,0.4-0.1,0.5-0.2c0.1,0.2,0.4,0.5,0.6,0.5c-0.6,0.4-1.1,0.7-1.9,1.2
		C58.4,93.3,59.3,93.2,59.3,92.6z"/>
	<path class="st39" d="M75.9,100c0-0.2-0.1-0.6,0-0.9c0-0.4-0.4-1.1,0.5-1.2c0.7-0.1,0.6,0.6,0.9,1C76.1,98.6,76.1,99.3,75.9,100z"
		/>
	<path class="st8" d="M65.6,97.5c0.2,0.2,0.5-0.9,0.9,0c-0.4,0.5-0.7,1.1-1.1,1.7C65.1,98.4,65.3,98,65.6,97.5z"/>
	<path class="st17" d="M86.4,91.8c0.1-0.2,0.1-0.5,0.2-0.7c0.5,0.4,1.1,0.6,1.4,1.6C87.3,92.3,86.8,92.1,86.4,91.8z"/>
	<path class="st35" d="M84.3,93c0.4-0.4,0.9-0.1,1.4-0.2c0.2,0.2,0.6,0.5,0.7,1C85.6,93.9,85.1,92.9,84.3,93z"/>
	<path class="st42" d="M88.4,76.9c0.2-0.4,0-0.5-0.4-0.5c0.6-0.1,1.1-0.4,2-0.6C89.5,76.5,89,76.6,88.4,76.9z"/>
	<path class="st43" d="M88.9,82.8c0.4,0,0.6-0.1,1-0.1c0.2,0,0.6,0,1,0.1C90.1,83.2,89.5,83.5,88.9,82.8z"/>
	<path class="st33" d="M87.7,90.2c0.1-0.1,0.4-0.2,0.5-0.4c0.4,0.1,1,0.4,0.7,0.6C88.7,90.9,88,90.5,87.7,90.2z"/>
	<path class="st5" d="M79.4,97.2c-0.2-0.2-0.2-0.4,0.1-0.5c0.4-0.1,0.7-0.5,1,0.1C80.2,97.4,79.9,97.4,79.4,97.2z"/>
	<path class="st44" d="M88.5,84.8c0.7-0.5,1.7,0,2.5-0.4C90.1,85,89.3,84.5,88.5,84.8z"/>
	<path class="st29" d="M88.4,88.5c0.2-0.1,0.5-0.2,0.7-0.4c0.2,0.1,0.7,0.1,0.5,0.5c-0.1,0.4-0.5,0.1-0.7,0
		C88.8,88.5,88.7,88.5,88.4,88.5z"/>
	<path class="st45" d="M79.1,98.2c0.2-0.1,0.2-0.4,0.4-0.6c0.4,0.4,0.2,0.9,0.4,1.4C79.4,98.8,79.4,98.5,79.1,98.2z"/>
	<path class="st46" d="M68.2,98.2c0.5-0.5,0.9-0.5,1,0.2C68.8,98.5,68.4,98.6,68.2,98.2z"/>
	<path class="st31" d="M56.5,78.1c-0.5,0.1-1-0.1-1.4,0.2h-0.1h-0.1c-0.2-0.1-0.4-0.2-0.2-0.5c0.1-0.2,0.4-0.2,0.5-0.1
		C55.7,77.9,56,78,56.5,78.1z"/>
	<path class="st47" d="M88.9,88c-0.4-0.1-0.9-0.1-1-0.6C88.4,87.2,88.9,87.1,88.9,88z"/>
	<path class="st24" d="M54.9,81.9c-0.1,0.1-0.1,0.4-0.2,0.5c-0.2-0.1-0.7,0.1-0.6-0.4C54.1,81.8,54.6,81.9,54.9,81.9z"/>
	<path class="st48" d="M89.9,78.4c-0.2-0.2-0.5-0.2-0.9-0.2c0.4-0.1,0.6-0.1,1-0.2c0.1,0,0.4-0.1,0.4,0.2
		C90.4,78.4,90.1,78.4,89.9,78.4z"/>
	<path class="st49" d="M57.3,74.3c-0.2,0-0.5,0-0.6,0.2c-0.2,0-0.7-0.1-0.5-0.5C56.5,73.7,56.9,74,57.3,74.3z"/>
	<path class="st21" d="M58.2,72.6c-0.2,0-0.4,0.1-0.4,0.2c-0.2-0.2-0.5-0.4-0.9-0.7C57.4,72.1,57.8,72.2,58.2,72.6z"/>
	<path class="st50" d="M62.4,68.1c-0.1,0.1-0.2,0.2-0.4,0.4c-0.2-0.2-0.6-0.6-0.4-1C62,67.5,62.2,67.9,62.4,68.1z"/>
	<path class="st51" d="M73.8,66.4c0-0.2,0-0.6,0-0.9c0.2,0.6,0.6,0.7,1.2,0.5C74.8,66.6,74.3,66.3,73.8,66.4z"/>
	<path class="st52" d="M73.9,99.5c0.1-0.5-0.4-1.1,0.5-1.2C74.1,98.6,74,99.1,73.9,99.5z"/>
	<path class="st53" d="M55.2,77.7c-0.5,0-0.6,0.1-0.2,0.5c-0.4,0-0.6-0.1-0.5-0.5C54.6,77.5,54.9,77.6,55.2,77.7z"/>
	<path class="st54" d="M56.7,89.8c0,0.1,0,0.2,0,0.5c-0.2,0.1-0.5,0.4-0.6,0.1C56,90.1,56.4,90,56.7,89.8z"/>
	<path class="st23" d="M56.2,76c-0.1,0.1-0.4,0.1-0.5,0.2c-0.2,0-0.5-0.2-0.4-0.4C55.6,75.6,55.9,75.9,56.2,76z"/>
	<path class="st55" d="M88.4,74.5c-0.1-0.1-0.2-0.1-0.4-0.2c0.2-0.2,0.7-0.5,0.9-0.1C89.1,74.3,88.7,74.5,88.4,74.5z"/>
	<path class="st56" d="M73.4,100c0.1-0.1,0.2-0.1,0.4-0.2c0,0.2,0.1,0.6-0.1,0.6C73.3,100.4,73.4,100.2,73.4,100z"/>
	<path class="st30" d="M86,71.2c-0.1-0.1-0.2-0.1-0.4-0.2c0.2-0.2,0.4-0.6,0.7-0.2C86.7,71,86.3,71.1,86,71.2z"/>
	<path class="st57" d="M81.6,67.3c-0.1-0.1-0.2-0.2-0.4-0.4c0.1-0.2,0.2-0.6,0.6-0.5C82.1,66.6,81.7,67,81.6,67.3z"/>
	<path class="st58" d="M84.1,73.6c0.1,0.5,0.5,0.9,0.7,1.2c0.4,0.6,0.7,1.4,1,2c0.1,0.9,0.6,1.6,0.5,2.6c-0.1,0.9-0.6,1.4-1.2,1.9
		c-0.1,0.1-0.2,0.1-0.4,0.1c-0.1,0-0.4-0.1-0.5-0.2h-0.1c-0.4-0.1-1,0-1.1-0.6c-0.1-0.6,0.5-0.7,0.9-1c-0.4,0.2-0.7,0.2-1-0.1
		c-0.2-0.4,0-0.6,0.2-0.9c0.2-0.1,0.5-0.2,0.7-0.2c-0.4,0-0.7,0.2-1.1,0.1c-0.9-0.6-0.6-2-1.6-2.5c-0.1,0-1.4-1.5-1.5-1.6
		c-0.2-0.1-0.5-0.4-0.5-0.6c0-0.4,0.1-0.4-0.2-0.2c-0.7,0.2-1.1-0.5-1.6-0.7c-0.9-0.5-1.9-0.6-2.6-1.4c-0.1-0.1-0.1,0-0.2,0.1
		c-0.1,0-0.1,0.1-0.1,0.1c-0.6,0.5-0.9-0.5-1.1-0.4c-0.7,0.5-0.9,0.4-1.1-0.5c-0.2,0.4-0.1,1.6-1.2,0.7c-0.2-0.1-0.1,0.1-0.2,0.1
		c-0.4,0.4-0.7,0.6-1.1,0c0,0,0-0.1-0.1,0c-0.6,1-0.6,1-1.4,0.1c0,0,0-0.2-0.1-0.1c0,0,0,0.2-0.1,0.4c-0.1,0.1-0.2,0-0.2,0
		c-0.1-0.6-0.2-1.1-0.2-1.7c0.1-0.4,0.4-0.7,0.5-1c0.1-0.1,0.2-0.2,0.2-0.2c0.2-0.2,0.7-0.2,1-0.5c3.5-1,6.8-0.4,10.2,1.1
		c0.7,0.5,1.6,1,2.4,1.5C82.3,71.8,83.2,72.7,84.1,73.6z"/>
	<path class="st13" d="M68.9,68.5c-0.2,0.1-0.6,0.4-1,0.4C68.2,68.5,68.6,68.4,68.9,68.5z"/>
	<path class="st58" d="M82.5,92.6c-0.4,0.2-0.6,0.5-1,0.9c-1,0.6-1.9,1.2-2.9,1.9c-1.6,0.6-3.2,1.1-4.8,1.4c-0.7,0.1-1.5,0.1-2.2,0
		c-0.6-0.2-1.4,0-2.1-0.2c-0.7-0.4-1.5-0.7-2.1-1.5c-0.1-0.4-0.1-0.7-0.2-1c-0.4-0.4,0-0.6,0.2-0.9c0.6,0,0.6-0.7,1.1-0.9
		c0.7,0,0.9,0.5,0.6,1c-0.1,0.1,0.2,0.1,0,0.1c-0.1,0-0.1,0,0-0.1c0.1-0.1,0,0,0-0.1c0.2-0.4,0.7-0.6,0.9-0.1c0.4,0.9,0.6,0,0.9,0
		c0.5,0.1,0.5,0.5,0.6,0.9c0,0.1,0.2,0,0.1,0c0,0,0,0,0-0.1c0-0.4,0.1-0.6,0.5-0.7c0.4-0.1,0.6,0.1,0.7,0.4c0.2,0.2,0.1-0.1,0.1-0.1
		c0.2-0.2,0.5-0.5,0.9-0.2c0.2,0.1,0.2,0.4,0.5-0.1c0.4-0.6,0.9-0.4,1.2,0.2c0-0.6,0.4-1.2,0.7-0.9c0.9,0.7,0.5-0.1,0.6-0.4
		c0.5-0.4,0.7-0.1,1.1,0.2c0,0.1,0.2-0.1,0.1,0c-0.4-0.6-0.4-1,0.5-1.1c0.1,0,0.2,0.1,0.4,0.1c0-0.1,0-0.2,0-0.4
		c0.9-0.7,1.5-1.7,2.2-2.5c0.4,0.1,0.4-0.1,0.2-0.4c0.4-0.9,1.1-1.6,1.1-2.6c0-0.6,0.6-0.4,1.1-0.4c-0.5-0.1-1.1-0.2-0.9-1
		c0.4-0.5,0.9-0.4,1.4-0.5c0.1,0,0.4,0,0.5-0.1c0.1,0,0.4,0,0.5,0.1c0.6,0.4,1,1.1,1,1.7c0,0.4,0,0.6-0.1,1
		c-0.4,0.6-0.6,1.4-0.7,2.1c-0.4,0.5-0.6,1-0.9,1.5c-0.2,0.4-0.5,0.6-0.7,1C83.6,91.3,83.1,91.9,82.5,92.6z"/>
	<path class="st5" d="M80,81.4c-2.1-0.2-4.1,0.2-6.2-0.2c-1,0.2-1.4-0.6-2-1.1c-0.4-0.6-0.7-1.2-1.1-1.9c-0.2-0.4-0.6-0.9-0.9-1.4
		c-0.2-0.6-0.5-1.4-1-1.9c-0.1-0.2-0.2-0.6,0-0.9c2.6-1.5,6.6-1.1,9.1,1c1.6,1.4,2.9,3,3.2,5.1c0.1,0.5,0.2,0.9-0.1,1.4
		C80.7,81.7,80.3,81.7,80,81.4z"/>
	<path class="st59" d="M72.2,79.8c0.4,0.6,0.9,1.2,1.7,1.4c0,0.4-0.1,0.7-0.5,0.7c-0.9-0.1-1.2,0.2-1.5,1c-0.2,0.2-0.6,0.2-0.9,0.1
		c-0.4-1-0.6-2.1-0.7-3.1C70.8,79.4,71.4,79.5,72.2,79.8z"/>
	<path class="st60" d="M73.8,83.4c2.5-0.4,4.8-0.1,7.3-0.1c0.1,0.4-0.1,0.5-0.4,0.7c-1.2,0.2-2.5,0.1-3.8,0.1
		c-1.1,0-2.2-0.1-3.3,0.2c-0.2,0.1-0.6,0.1-0.9-0.1C72.7,83.3,73.3,83.3,73.8,83.4z"/>
	<path class="st61" d="M73.8,83.4c-0.4,0.1-0.7,0.2-1,0.6c-0.2,0.4-0.4,0.7-0.9,1c-0.6,0.1-1.2,0-1.6-0.6c-0.1-0.6,0.1-1.1,0.7-1.4
		c0.2,0,0.6,0,0.7-0.2c0.5-0.1,1-0.4,1.5-0.2C73.5,82.7,73.4,83.2,73.8,83.4z"/>
	<path class="st62" d="M80,81.4c0.4,0,0.7,0,1.2-0.1c0.6-0.4,1.2-0.4,2-0.4c0.6,0,1.1,0.1,1.7,0.1c0.1,0,0.1,0,0.2,0
		c0.1,0.2,0.1,0.5,0.2,0.7c-1.7,0-3.5,0-5.2,0c-1.7,0-3.3,0-5.1,0C76.8,81.4,78.4,81.9,80,81.4z"/>
	<path class="st63" d="M73.3,82.4c-0.5,0.4-0.9,0.9-1.5,0.2c0-0.5-0.1-1,0.4-1.2c0.5-0.2,0.9,0.1,1.1,0.5
		C73.3,82.1,73.3,82.3,73.3,82.4z"/>
	<path class="st64" d="M81,83.7c0.1-0.1,0.1-0.2,0.2-0.5c0.9,0,1.6,0,2.5,0c0.2,0.2,0.9-0.2,1,0.5c-0.5,0.1-1,0-1.5,0.2
		c-0.6,0-1.4,0.1-2,0C81,83.9,81,83.9,81,83.7C81,83.7,81,83.8,81,83.7z"/>
	<path class="st65" d="M84.6,83.7c-0.2-0.4-0.7-0.1-1-0.5c0.4,0,0.9-0.2,1.2,0.1C84.7,83.4,84.7,83.5,84.6,83.7z"/>
	<path class="st58" d="M58.3,81c0.2-0.5-0.1-1.1,0.2-1.5c0.2-0.9,0.4-1.7,0.6-2.6c0.6-0.6,0.9-1.5,1.2-2.3c0.6-0.6,1-1.5,1.9-2
		c0.7-0.6,1.5-0.9,2.5-0.7c0.5,0,0.9,0.2,0.9,0.7c0.2,0.4,0.5,0.6,0.6,1.1c0,0.1,0,0.4-0.1,0.5c-0.2,0.5-0.9,0-0.9,0.4
		c0,0.5-0.5,0.6-0.6,0.9c-0.2,0.4-0.6,0.9-0.9,1.4c-0.4,0.6-0.5,1.6-1.5,1.9c0.2,0.2,0.6,0.5,0.4,1c-0.4,0.4-0.7,0.1-1.2,0.2
		c-0.1,0,0,0.1,0.1,0.1c0.1-0.1,0.4,0,0.6,0c0.6,0.4,0.6,0.7,0,1.1c-0.1,0.1-0.2,0-0.4,0.1c0,0.1,0-0.1,0.1,0c1,0.4-0.2,1,0.2,1.5
		c0.4,0.4,0,0.7-0.4,1c0.6,0,0.9,0.2,0.7,0.9c0,0.1-0.9,0.5,0.1,0.5c0.1,0,0.1,0.2,0.2,0.2c0.6,0.2-1.1,0.7,0.1,1
		c0.5,0.1,0.2,1,0.7,1.4c0.2,0.1,0.2,0.6,0.7,1c0.6,0.5,1,1.5,1.9,2c0.4,0.2-0.2,0.9,0.1,1.2c0,0.7-0.4,1.1-1.1,1.1
		c-0.6,0.1-1.2,0.1-1.7-0.1c-1-0.5-1.6-1.4-2.4-2.1c-0.5-0.9-1-1.9-1.5-2.7c-0.2-0.7-0.5-1.6-0.7-2.3c-0.5-0.9-0.1-1.9-0.4-2.7
		C58.2,82.1,58.2,81.4,58.3,81z"/>
	<path class="st66" d="M67.5,71.9c0.1,0,0.1,0,0.2,0c0.7,0.1,0.6,0.7,0.6,1.2c-0.4,0.6-1,0.7-1.6,0.7c-0.5-0.1-0.6-0.6-1-0.9
		c0-0.2,0-0.4,0.1-0.5C66.5,72.4,67.2,72.7,67.5,71.9z"/>
	<path class="st67" d="M66,72.4c0,0.1,0,0.2,0,0.4c0,0.2,0.4,0.4,0.2,0.6c-0.1,0.1-0.2,0.1-0.4,0c-0.2-0.2-0.5-0.6-0.4-1.1
		C65.6,72.4,65.8,72.4,66,72.4z"/>
	<path class="st8" d="M71.5,96.5c0.7,0,1.5,0,2.2,0C73,96.7,72.3,96.7,71.5,96.5z"/>
	<path class="st68" d="M64.8,92.8c0.4-0.4,1-0.6,1.1-1.2c0-0.2,0-0.5,0.4-0.6c0.6,0.2,1.2,0.2,1.7,0.5c0.1,0.5,0,0.9-0.2,1.2
		c-0.4,0.1-0.4,0.5-0.5,0.9c-0.6,0-1.2,0.1-1.9,0C64.8,93.5,64.7,93.3,64.8,92.8z"/>
	<path class="st69" d="M68.2,73.3c-0.4-0.4-0.1-1-0.5-1.2c0-0.2,0-0.5,0.1-0.7c0.6,0.1,0.5,1.2,1.1,1c0.7-0.2-0.1-1,0.2-1.5
		c0.6,0.1,0.4,1.2,1,1.1c0.6-0.1,0.1-0.9,0.4-1.2c0.6,0.1,0.2,1.2,0.9,1c0.5-0.1,0.2-0.9,0.5-1.2c0.4,0.4,0.1,1.1,0.6,1.1
		c0.7,0,0.4-0.7,0.6-1.1c0.5,0.4,0,1.2,0.6,1.2c0.6,0,0.4-0.9,0.9-1.1c0.4,0.4-0.2,1.2,0.4,1.4c0.6,0.1,0.4-0.9,1-1
		c0.1,0.4,0,0.6,0,1c0,0.4,0.2,0.6,0.5,0.4c0.5-0.4,0.5-0.5,0.7,0.2c0.2,1,0.6-0.1,1-0.1c0.5,0.2-0.4,0.9,0.2,1
		c0.6,0.1,0.7-0.6,1.2-0.7c0.2,0.5-0.7,0.9-0.4,1.5c0.4,0.4,0.6-0.2,1-0.1c0.2,0.4-0.5,0.7,0,1c0.5,0.4,0.7-0.4,1.2-0.2
		c0.1,0.5-0.9,0.6-0.5,1.2c0.2,0.5,0.6-0.2,1,0c0.1,0.4-1.2,1.1,0.2,1.2c0.4,0,0.1,0.2,0,0.5c-0.4,0.4-0.1,0.6,0.2,0.7
		c0.2,0,0.5-0.2,0.5,0.2c-0.2,0.1-0.5,0.2-0.5,0.5c0.2,0.6,0.9,0.1,1.4,0.4c0,0.2-0.1,0.2-0.2,0.4c-0.2,0.2-0.9,0.1-0.7,0.6
		c0.1,0.5,0.6,0.2,0.9,0.2s0.4,0,0.6,0.2c-0.2,0.6-0.9,0.2-1.2,0.5c-0.7,0-1.5,0-2.1,0c-0.5-5.4-6.3-9.5-12.2-7
		C68.3,74.3,68.3,73.8,68.2,73.3z"/>
	<path class="st70" d="M83.3,81.4c0.2-0.4,0.9-0.2,1.2-0.5c0.1,0.1,0.2,0.2,0.4,0.4C84.4,81.6,83.8,81.4,83.3,81.4z"/>
	<path class="st71" d="M83.3,78.6c-0.1-0.1-0.4-0.1-0.5-0.2c0.4-0.2,0.7-0.2,1.1-0.2C83.8,78.5,83.6,78.5,83.3,78.6z"/>
	<path class="st69" d="M81,83.9c0.6-0.4,1.4-0.5,2,0c0,0.7,0.9,0.5,1.1,1c-0.5,0.4-1.1-0.2-1.4,0.2c-0.2,0.5,0.5,0.5,0.6,1
		c-0.7,0.1-2,0.1-0.5,1.1c-0.2,0.6-1.4-0.5-1.2,0.7c0,0.2,0,0.5-0.4,0.4c0.1,0.9-1.4,1.1-1,2.2c-0.4,0.1-1-0.6-1.2,0.2
		c0.1,0.2,0,0.4-0.4,0.2c-1.6,0.2,0.1,1.1-0.4,1.5c-0.5-0.1-0.5-1.1-1.1-0.9c-0.6,0.4,0.2,1-0.1,1.5c-0.5-0.1-0.4-1.2-1.1-1
		c-0.7,0.2,0.1,1-0.2,1.5c-0.5-0.2-0.2-1.2-1-1.1c-0.7,0.1,0,0.9-0.4,1.4c-0.6-0.1-0.1-1.2-1-1.1c-0.6,0.1-0.1,1-0.5,1.4
		c-0.4-0.4,0-1.4-0.7-1.2c-0.6,0-0.2,0.9-0.6,1.2c-0.5-0.4,0-1.1-0.6-1.2c-0.7-0.1-0.4,0.9-0.9,1.1c-0.2-0.4,0.2-1.1-0.4-1.4
		c-0.7-0.1-0.5,0.9-1,1c-0.5-0.4,0.7-1.5-0.6-1.5c-0.5-0.9,0.1-1.5,0.6-2c0.5-0.2,1.1,0,1.6,0c4.3,0.7,7.9-1.2,9.5-5.3
		C80.5,84.7,80.6,84.2,81,83.9z"/>
	<path class="st11" d="M69.2,90.2c-0.2,0.6-0.7,1.2-0.7,2c-0.1,0.4-0.1,0.9-0.7,0.6c0-0.5,0-0.9,0.2-1.2c0-0.4,0.2-0.7,0.4-1
		c0.1-0.2,0.4-0.4,0.6-0.5C69.1,90,69.2,90.1,69.2,90.2z"/>
	<path class="st72" d="M78.9,91.1c0.1-0.1,0.2-0.2,0.4-0.2c0.1,0.2,0.4,0.5,0.5,0.9C79.2,91.8,79.1,91.3,78.9,91.1z"/>
	<path class="st73" d="M81.5,88.4c0.1-0.1,0.2-0.2,0.4-0.4c0.2,0.1,0.6,0.4,0.5,0.6C82,88.9,81.7,88.5,81.5,88.4z"/>
	<path class="st74" d="M68.2,73.3c0.4,0.2,0.4,0.9,0.9,1c-0.1,0.2,0.1,0.5,0.2,0.7c-0.4,0.6-0.9,0.6-1.5,0.6c-0.2,0-0.4-0.1-0.5-0.2
		c-0.2-0.5-0.9-0.9-0.6-1.6C67.2,73.6,67.7,73.4,68.2,73.3z"/>
	<path class="st55" d="M67.7,75.5c0.5-0.1,1-0.4,1.6-0.5c0.5,0.5,0.7,1.2,1,1.9c-0.6,0.6-1.2,0.4-2,0.1
		C67.9,76.5,67.5,76.3,67.7,75.5z"/>
	<path class="st75" d="M68.4,76.9c0.6,0.1,1.2,0.2,1.7,0c0.2,0.4,0.5,0.9,0.7,1.2c-0.1,1.1-0.9,0.6-1.5,0.6
		C68.8,78.2,68.3,77.7,68.4,76.9z"/>
	<path class="st76" d="M69.4,78.4c0.5-0.2,1.2,0.6,1.6-0.4c0.4,0.6,0.7,1.2,1.1,1.9c-0.6,0-1.2,0-1.9,0
		C69.4,79.7,69.3,79.1,69.4,78.4z"/>
	<path class="st5" d="M69.4,78.4c0.2,0.5,0.4,1.1,0.9,1.5c0.6,1,0.9,2,0.9,3.1c-0.2,0.4-0.5,0.7-0.5,1.2c-0.1,0.9-0.7,1.6-1.1,2.3
		c-0.4,0.6-0.7,1.2-1,1.9c-0.2,0.2-0.4,0.6-0.7,0.9c-0.2,0-0.4,0-0.6,0c-4.5-3.3-4.7-10.1-0.4-13.7c0.2-0.1,0.5-0.4,0.7-0.2
		c0.1,0.1,0.2,0.1,0.2,0.2c0.2,0.4,0.5,0.9,0.7,1.2C68.7,77.4,68.9,78,69.4,78.4z"/>
	<path class="st5" d="M69.2,90.2c-0.1-0.1-0.1-0.1-0.2-0.2c-0.1-0.4,0.1-0.7,0.2-1.1c0.1-0.2,0.4-0.6,0.5-0.9c0.4-0.6,0.7-1.1,1-1.7
		c0.4-0.6,0.7-1.2,1.2-1.6c0.2-0.2,0.2-0.7,0.7-0.7c0.7,0.4,1.5-0.4,2.2-0.2c2,0.1,4,0,6,0c0,0.1,0,0.1,0.1,0.2
		C79.5,89.5,75.3,91.7,69.2,90.2z"/>
	<path class="st77" d="M72,84.7c-0.1,0.7-0.7,1.1-1,1.7c-0.4,0.1-0.6,0.5-1,0.6c-0.6,0.1-1.1,0.1-0.9-0.7c0.2-0.9,0.7-1.5,1.2-2.2
		C70.9,84.7,71.4,84.8,72,84.7z"/>
	<path class="st69" d="M67,75.5c-3,3-3.8,6.3-2.2,10.1c0.5,1.4,1.5,2.3,2.5,3.3c0.7,0.7-0.1,1.1-0.2,1.6c-0.1,0.2-0.5,0.2-0.7,0.4
		c-0.1,0.1-0.1,0.4-0.2,0.5c-0.2,0.1-0.4,0.2-0.6,0.2c-0.2-0.1,0-0.2,0-0.4c0-0.4,0.7-0.5,0.2-1c-0.5-0.4-0.6,0.4-1.2,0.2
		c0.1-0.6,1.4-1.9-0.6-1.1c-0.4-0.4,0.9-1.1-0.2-1.1c-0.4,0-0.6,0.4-1.1,0.2c0.2-0.5,1-0.5,0.9-1.1c-0.1-0.6-0.7,0.1-1.1-0.2
		c-0.1-0.5,0.7-0.5,0.5-1c-0.4-0.6-1,0-1.5-0.1c0.1-0.6,1.2-0.4,1.1-1.1c-0.1-0.6-0.9-0.1-1.2-0.4c0.1-0.5,1.2-0.2,1-1
		c-0.2-0.5-0.9-0.1-1.2-0.4c0.2-0.5,1.2-0.1,1.1-0.9c0-0.6-0.7-0.2-1.1-0.5c0.1-0.6,1.1,0,1.1-0.7c0-0.4-0.2-0.4-0.5-0.5
		c-0.1-0.2,0-0.4,0.2-0.4c0.2,0,0.4-0.1,0.5-0.4c0-0.4-0.2-0.4-0.5-0.5c0-0.6,0.6-0.1,0.7-0.5c0.1-0.9-0.9-0.6-1.1-1.1
		c0.5-0.4,1.2,0.2,1.5-0.4c0-0.1-0.2-0.4-0.5-0.6c0.7-0.1,2,0,0.7-1.1c0.4-0.4,0.9,0.4,1.1-0.1c0.4-0.6-0.6-0.7-0.5-1.2
		c0.5-0.2,0.9,0.9,1.4,0.2c0.4-0.5-0.4-0.7-0.5-1.2c0.5-0.6,1.1,1.6,1.6-0.1c0.1,0,0.2,0,0.4,0C66.6,74.2,67.3,74.7,67,75.5z"/>
	<path class="st78" d="M62.4,79.4c-0.1,0.4-0.6,0.2-0.7,0.5c-0.2-0.1-0.5-0.1-0.6-0.2v-0.1C61.4,79.4,61.9,79.4,62.4,79.4z"/>
	<path class="st79" d="M61.6,80.7c-0.1,0.1-0.1,0.2-0.2,0.4c-0.4,0-0.5-0.1-0.7-0.4C60.9,80.6,61.3,80.7,61.6,80.7z"/>
	<path class="st17" d="M67,75.5c0.1-0.9-0.6-1.4-0.7-2c-0.1-0.2-0.1-0.4-0.2-0.6c0.5,0.1,0.5,0.6,0.7,0.9c0.2,0.5,0.5,1,0.7,1.5
		C67.3,75.4,67.1,75.5,67,75.5z"/>
	<path class="st54" d="M66.2,91.1c0.1-0.1,0.4-0.4,0.5-0.5c0.6-0.4,1.2-0.5,1.7,0c0,0.4-0.1,0.7-0.5,1
		C67.3,91.6,66.6,91.7,66.2,91.1z"/>
	<path class="st80" d="M68.4,90.6c-0.6,0-1.2,0-1.7,0c0.1-0.5,0.9-0.9,0.5-1.6c0.1,0,0.4,0,0.5,0c0.6,0,1.2-0.2,1.7,0
		c0,0.4-0.2,0.6-0.4,1C68.9,90.2,68.7,90.5,68.4,90.6z"/>
	<path class="st81" d="M69.2,86.4c0.1,0.6,0.4,0.7,0.9,0.4c0.2-0.2,0.6-0.4,1-0.2c-0.4,0.6-0.7,1.2-1,1.7c-0.6,0.5-1.2,0.5-1.9,0
		C68.3,87.6,68.7,87,69.2,86.4z"/>
	<path class="st82" d="M68.1,88.2c0.6,0,1.2,0.2,1.9,0c-0.1,0.2-0.4,0.5-0.5,0.7c-0.6,0.1-1.2,0.6-1.7,0
		C67.7,88.6,67.8,88.5,68.1,88.2z"/>
	<path class="st83" d="M94.1,69.5c4,0,7.2-3.2,7.2-7.2s-3.2-7.2-7.2-7.2c-4,0-7.2,3.2-7.2,7.2S90.1,69.5,94.1,69.5z"/>
	<path class="st84" d="M93.9,59.7c-0.7,0.5-1.4,1-2,1.4c-0.5-0.1-0.5-0.5-0.2-0.7c0.6-0.6,2.2-1.9,2.9-1.7c0.4,0.1,0.4,0.2,0.4,0.6
		c0,2.2,0,4.4,0,6.7c0,0.4,0,0.6-0.5,0.6c-0.5,0-0.5-0.4-0.5-0.7C93.9,63.8,93.9,61.8,93.9,59.7z"/>
</g>
</svg>
